<svg width="1467" height="1340" viewBox="0 0 1467 1340" fill="none" xmlns="http://www.w3.org/2000/svg">
<path d="M1457.47 18.0005C1226.66 134.28 1097.55 305.92 1044.87 457.667M1044.87 457.667C974.742 659.695 1040.08 826.461 1181.26 780.379C1279.79 748.218 1203.13 593.959 1044.87 457.667ZM1044.87 457.667C875.328 311.655 612.123 186.264 370.322 253.708C79.6052 334.797 215.427 638.342 420.705 900.684M420.705 900.684C567.93 1088.84 750.882 1255.79 837.829 1304.29C1010.56 1400.63 987.504 1038.06 420.705 900.684ZM420.705 900.684C304.376 872.49 165.144 853.781 0 850.473" stroke="#7468F6" stroke-width="38.7832"/>
</svg>
